<svg width="24" height="24" viewBox="0 0 24 24" fill="none" xmlns="http://www.w3.org/2000/svg">
<path d="M12 10.586L16.243 6.343C16.6335 5.95254 17.2665 5.95254 17.657 6.343C18.0475 6.73347 18.0475 7.36654 17.657 7.757L13.414 12L17.657 16.243C18.0475 16.6335 18.0475 17.2665 17.657 17.657C17.2665 18.0475 16.6335 18.0475 16.243 17.657L12 13.414L7.75699 17.657C7.36652 18.0475 6.73345 18.0475 6.34299 17.657C5.95252 17.2665 5.95252 16.6335 6.34299 16.243L10.586 12L6.34299 7.757C5.95252 7.36654 5.95252 6.73347 6.34299 6.343C6.73345 5.95254 7.36652 5.95254 7.75699 6.343L12 10.586Z" fill="white"/>
</svg>
