<svg width="186" height="32" viewBox="0 0 186 32" fill="none" xmlns="http://www.w3.org/2000/svg">
<path d="M23.88 27.76C23.56 28.0267 22.96 28.3867 22.08 28.84C21.2267 29.2933 20.1733 29.6933 18.92 30.04C17.6667 30.3867 16.28 30.5467 14.76 30.52C12.44 30.4667 10.36 30.0533 8.52 29.28C6.70667 28.48 5.16 27.4 3.88 26.04C2.62667 24.68 1.66667 23.12 1 21.36C0.333333 19.6 0 17.72 0 15.72C0 13.48 0.333333 11.4267 1 9.56C1.69333 7.69333 2.66667 6.08 3.92 4.72C5.2 3.36 6.72 2.30667 8.48 1.56C10.24 0.813332 12.1867 0.439999 14.32 0.439999C16.2933 0.439999 18.04 0.706665 19.56 1.24C21.08 1.77333 22.32 2.34666 23.28 2.96L21 8.44C20.3333 7.93333 19.44 7.41333 18.32 6.88C17.2267 6.32 15.96 6.04 14.52 6.04C13.4 6.04 12.32 6.28 11.28 6.76C10.2667 7.21333 9.36 7.86667 8.56 8.72C7.78667 9.57333 7.17333 10.5733 6.72 11.72C6.26667 12.84 6.04 14.0667 6.04 15.4C6.04 16.8133 6.24 18.1067 6.64 19.28C7.06667 20.4533 7.66667 21.4667 8.44 22.32C9.21333 23.1467 10.1333 23.7867 11.2 24.24C12.2933 24.6933 13.52 24.92 14.88 24.92C16.4533 24.92 17.8 24.6667 18.92 24.16C20.04 23.6533 20.8933 23.12 21.48 22.56L23.88 27.76Z" fill="url(#paint0_linear_71_89)"/>
<path d="M34.1306 0.759997L42.7306 21.96L39.3706 21.28L47.1706 0.759997H54.0506L40.6106 31.56L27.1706 0.759997H34.1306Z" fill="url(#paint1_linear_71_89)"/>
<path d="M54.98 18.6H62.5V23.48H54.98V18.6Z" fill="url(#paint2_linear_71_89)"/>
<path d="M75.4903 12.72L76.0103 17.52L75.8903 16.8C76.397 15.76 77.0903 14.88 77.9703 14.16C78.8503 13.4133 79.717 12.84 80.5703 12.44C81.4503 12.04 82.117 11.84 82.5703 11.84L82.2903 17.44C80.9836 17.28 79.8636 17.4933 78.9303 18.08C77.997 18.6667 77.277 19.44 76.7703 20.4C76.2636 21.36 76.0103 22.3467 76.0103 23.36V30.2H70.4503V12.72H75.4903Z" fill="url(#paint3_linear_71_89)"/>
<path d="M94.6753 30.68C92.542 30.68 90.7286 30.28 89.2353 29.48C87.7686 28.68 86.6486 27.5733 85.8753 26.16C85.102 24.7467 84.7153 23.12 84.7153 21.28C84.7153 19.52 85.1686 17.9333 86.0753 16.52C86.982 15.1067 88.1953 13.9867 89.7153 13.16C91.2353 12.3067 92.9286 11.88 94.7953 11.88C97.302 11.88 99.3553 12.6133 100.955 14.08C102.582 15.52 103.635 17.6133 104.115 20.36L90.5153 24.68L89.2753 21.64L99.1153 18.32L97.9553 18.84C97.742 18.1467 97.3553 17.5467 96.7953 17.04C96.262 16.5067 95.4486 16.24 94.3553 16.24C93.5286 16.24 92.7953 16.44 92.1553 16.84C91.542 17.2133 91.062 17.76 90.7153 18.48C90.3953 19.1733 90.2353 20 90.2353 20.96C90.2353 22.0533 90.4353 22.9733 90.8353 23.72C91.2353 24.44 91.782 24.9867 92.4753 25.36C93.1686 25.7333 93.942 25.92 94.7953 25.92C95.4086 25.92 95.9953 25.8133 96.5553 25.6C97.142 25.3867 97.7153 25.1067 98.2753 24.76L100.755 28.92C99.822 29.4533 98.8086 29.88 97.7153 30.2C96.6486 30.52 95.6353 30.68 94.6753 30.68Z" fill="url(#paint4_linear_71_89)"/>
<path d="M115.403 30.56L104.923 12.72H111.563L117.523 24.8L114.083 24.68L119.243 12.72H125.483L115.563 30.56H115.403Z" fill="url(#paint5_linear_71_89)"/>
<path d="M128.771 12.72H134.371V30.2H128.771V12.72ZM128.651 6.52C128.651 5.69333 128.971 5.01333 129.611 4.48C130.277 3.94666 130.984 3.68 131.731 3.68C132.477 3.68 133.157 3.94666 133.771 4.48C134.411 5.01333 134.731 5.69333 134.731 6.52C134.731 7.34666 134.411 8.02667 133.771 8.56C133.157 9.06667 132.477 9.32 131.731 9.32C130.984 9.32 130.277 9.06667 129.611 8.56C128.971 8.02667 128.651 7.34666 128.651 6.52Z" fill="url(#paint6_linear_71_89)"/>
<path d="M148.738 30.68C146.604 30.68 144.791 30.28 143.298 29.48C141.831 28.68 140.711 27.5733 139.938 26.16C139.164 24.7467 138.778 23.12 138.778 21.28C138.778 19.52 139.231 17.9333 140.138 16.52C141.044 15.1067 142.258 13.9867 143.778 13.16C145.298 12.3067 146.991 11.88 148.858 11.88C151.364 11.88 153.418 12.6133 155.018 14.08C156.644 15.52 157.698 17.6133 158.178 20.36L144.578 24.68L143.338 21.64L153.178 18.32L152.018 18.84C151.804 18.1467 151.418 17.5467 150.858 17.04C150.324 16.5067 149.511 16.24 148.418 16.24C147.591 16.24 146.858 16.44 146.218 16.84C145.604 17.2133 145.124 17.76 144.778 18.48C144.458 19.1733 144.298 20 144.298 20.96C144.298 22.0533 144.498 22.9733 144.898 23.72C145.298 24.44 145.844 24.9867 146.538 25.36C147.231 25.7333 148.004 25.92 148.858 25.92C149.471 25.92 150.058 25.8133 150.618 25.6C151.204 25.3867 151.778 25.1067 152.338 24.76L154.818 28.92C153.884 29.4533 152.871 29.88 151.778 30.2C150.711 30.52 149.698 30.68 148.738 30.68Z" fill="url(#paint7_linear_71_89)"/>
<path d="M174.141 12.72L177.981 21.72L176.941 21.8L180.301 12.72H185.741L177.861 31.24L172.261 19.64L167.141 31.24L159.181 12.72H164.621L168.861 22.44L166.941 22.16L170.301 14.72L169.381 12.72H174.141Z" fill="url(#paint8_linear_71_89)"/>
<defs>
<linearGradient id="paint0_linear_71_89" x1="187" y1="20.2" x2="-2" y2="20.2" gradientUnits="userSpaceOnUse">
<stop stop-color="#FF961B"/>
<stop offset="1" stop-color="#FF0000"/>
</linearGradient>
<linearGradient id="paint1_linear_71_89" x1="187" y1="20.2" x2="-2" y2="20.2" gradientUnits="userSpaceOnUse">
<stop stop-color="#FF961B"/>
<stop offset="1" stop-color="#FF0000"/>
</linearGradient>
<linearGradient id="paint2_linear_71_89" x1="187" y1="20.2" x2="-2" y2="20.2" gradientUnits="userSpaceOnUse">
<stop stop-color="#FF961B"/>
<stop offset="1" stop-color="#FF0000"/>
</linearGradient>
<linearGradient id="paint3_linear_71_89" x1="187" y1="20.2" x2="-2" y2="20.2" gradientUnits="userSpaceOnUse">
<stop stop-color="#FF961B"/>
<stop offset="1" stop-color="#FF0000"/>
</linearGradient>
<linearGradient id="paint4_linear_71_89" x1="187" y1="20.2" x2="-2" y2="20.2" gradientUnits="userSpaceOnUse">
<stop stop-color="#FF961B"/>
<stop offset="1" stop-color="#FF0000"/>
</linearGradient>
<linearGradient id="paint5_linear_71_89" x1="187" y1="20.2" x2="-2" y2="20.2" gradientUnits="userSpaceOnUse">
<stop stop-color="#FF961B"/>
<stop offset="1" stop-color="#FF0000"/>
</linearGradient>
<linearGradient id="paint6_linear_71_89" x1="187" y1="20.2" x2="-2" y2="20.2" gradientUnits="userSpaceOnUse">
<stop stop-color="#FF961B"/>
<stop offset="1" stop-color="#FF0000"/>
</linearGradient>
<linearGradient id="paint7_linear_71_89" x1="187" y1="20.2" x2="-2" y2="20.2" gradientUnits="userSpaceOnUse">
<stop stop-color="#FF961B"/>
<stop offset="1" stop-color="#FF0000"/>
</linearGradient>
<linearGradient id="paint8_linear_71_89" x1="187" y1="20.2" x2="-2" y2="20.2" gradientUnits="userSpaceOnUse">
<stop stop-color="#FF961B"/>
<stop offset="1" stop-color="#FF0000"/>
</linearGradient>
</defs>
</svg>
