<svg width="24" height="24" viewBox="0 0 24 24" fill="none" xmlns="http://www.w3.org/2000/svg">
<g clip-path="url(#clip0_48_182)">
<path d="M5 2.00009H19C19.2652 2.00009 19.5196 2.10545 19.7071 2.29298C19.8946 2.48052 20 2.73488 20 3.00009V22.1431C20.0001 22.2325 19.9763 22.3203 19.9309 22.3973C19.8855 22.4744 19.8204 22.5379 19.7421 22.5812C19.6639 22.6245 19.5755 22.646 19.4861 22.6435C19.3968 22.6411 19.3097 22.6147 19.234 22.5671L12 18.0301L4.766 22.5661C4.69037 22.6136 4.60339 22.64 4.5141 22.6425C4.42482 22.645 4.33649 22.6236 4.2583 22.5804C4.1801 22.5372 4.11491 22.4739 4.06948 22.397C4.02406 22.3201 4.00007 22.2324 4 22.1431V3.00009C4 2.73488 4.10536 2.48052 4.29289 2.29298C4.48043 2.10545 4.73478 2.00009 5 2.00009ZM18 4.00009H6V19.4321L12 15.6711L18 19.4321V4.00009Z" fill="#09121F"/>
</g>
<defs>
<clipPath id="clip0_48_182">
<rect width="24" height="24" fill="white"/>
</clipPath>
</defs>
</svg>
