<svg width="24" height="24" viewBox="0 0 24 24" fill="none" xmlns="http://www.w3.org/2000/svg">
<g clip-path="url(#clip0_48_427)">
<path d="M13.7104 4.5C13.7104 3.675 13.0354 3 12.2104 3C11.3854 3 10.7104 3.675 10.7104 4.5C10.7104 5.325 11.3854 6 12.2104 6C13.0354 6 13.7104 5.325 13.7104 4.5ZM13.7104 19.5C13.7104 18.675 13.0354 18 12.2104 18C11.3854 18 10.7104 18.675 10.7104 19.5C10.7104 20.325 11.3854 21 12.2104 21C13.0354 21 13.7104 20.325 13.7104 19.5ZM13.7104 12C13.7104 11.175 13.0354 10.5 12.2104 10.5C11.3854 10.5 10.7104 11.175 10.7104 12C10.7104 12.825 11.3854 13.5 12.2104 13.5C13.0354 13.5 13.7104 12.825 13.7104 12Z" fill="#09121F"/>
</g>
<defs>
<clipPath id="clip0_48_427">
<rect width="24" height="24" fill="white" transform="translate(24) rotate(90)"/>
</clipPath>
</defs>
</svg>
