<svg width="22" height="21" viewBox="0 0 22 21" fill="none" xmlns="http://www.w3.org/2000/svg">
<path d="M9.74127 0C14.7093 0 18.7413 4.032 18.7413 9C18.7413 13.968 14.7093 18 9.74127 18C4.77327 18 0.741272 13.968 0.741272 9C0.741272 4.032 4.77327 0 9.74127 0ZM9.74127 16C13.6083 16 16.7413 12.867 16.7413 9C16.7413 5.132 13.6083 2 9.74127 2C5.87327 2 2.74127 5.132 2.74127 9C2.74127 12.867 5.87327 16 9.74127 16ZM18.2263 16.071L21.0553 18.899L19.6403 20.314L16.8123 17.485L18.2263 16.071Z" fill="#09121F"/>
</svg>
