<svg width="25" height="24" viewBox="0 0 25 24" fill="none" xmlns="http://www.w3.org/2000/svg">
<path d="M11.288 19.2435C12.05 20.5633 13.9549 20.5633 14.7169 19.2435L21.2318 7.95935C21.9938 6.63957 21.0413 4.98984 19.5173 4.98984H6.48751C4.96356 4.98984 4.01108 6.63957 4.77306 7.95935L11.288 19.2435Z" fill="url(#paint0_linear_72_192)" fill-opacity="0.25"/>
<path fill-rule="evenodd" clip-rule="evenodd" d="M13.712 18.2537C12.95 19.5735 11.0451 19.5735 10.2831 18.2537L3.76818 6.96953C3.0062 5.64974 3.95867 4.00001 5.48262 4.00001H18.5124C20.0364 4.00001 20.9889 5.64974 20.2269 6.96952L13.712 18.2537ZM12.6833 13.3045C12.3785 13.8324 11.6165 13.8324 11.3117 13.3045L8.91147 9.14716C8.60668 8.61925 8.98767 7.95936 9.59725 7.95936H14.3977C15.0073 7.95936 15.3883 8.61925 15.0835 9.14716L12.6833 13.3045Z" fill="url(#paint1_linear_72_192)"/>
<defs>
<linearGradient id="paint0_linear_72_192" x1="24.6402" y1="7.63163" x2="1.27302" y2="7.63163" gradientUnits="userSpaceOnUse">
<stop stop-color="#FF961B"/>
<stop offset="1" stop-color="#FF0000"/>
</linearGradient>
<linearGradient id="paint1_linear_72_192" x1="23.6353" y1="6.64179" x2="0.268134" y2="6.64179" gradientUnits="userSpaceOnUse">
<stop stop-color="#FF961B"/>
<stop offset="1" stop-color="#FF0000"/>
</linearGradient>
</defs>
</svg>
